0
SECTION
2
HEADER
9
$INSUNITS
70
4
9
$ACADVER
1
AC1014
9
$HANDSEED
5
FFFF
0
ENDSEC
0
SECTION
2
TABLES
0
TABLE
2
VPORT
5
8
100
AcDbSymbolTable
0
ENDTAB
0
TABLE
2
LTYPE
5
5
100
AcDbSymbolTable
0
LTYPE
5
14
100
AcDbSymbolTableRecord
100
AcDbLinetypeTableRecord
2
BYBLOCK
70
0
0
LTYPE
5
15
100
AcDbSymbolTableRecord
100
AcDbLinetypeTableRecord
2
BYLAYER
70
0
0
ENDTAB
0
TABLE
2
LAYER
5
2
100
AcDbSymbolTable
70
2
0
LAYER
5
50
100
AcDbSymbolTableRecord
100
AcDbLayerTableRecord
2
0
70
0
6
CONTINUOUS
0
ENDTAB
0
TABLE
2
STYLE
5
3
100
AcDbSymbolTable
70
1
0
STYLE
5
11
100
AcDbSymbolTableRecord
100
AcDbTextStyleTableRecord
2
STANDARD
70
0
0
ENDTAB
0
TABLE
2
VIEW
5
6
100
AcDbSymbolTable
70
0
0
ENDTAB
0
TABLE
2
UCS
5
7
100
AcDbSymbolTable
70
0
0
ENDTAB
0
TABLE
2
APPID
5
9
100
AcDbSymbolTable
70
2
0
APPID
5
12
100
AcDbSymbolTableRecord
100
AcDbRegAppTableRecord
2
ACAD
70
0
0
ENDTAB
0
TABLE
2
DIMSTYLE
5
A
100
AcDbSymbolTable
70
1
0
ENDTAB
0
TABLE
2
BLOCK_RECORD
5
1
100
AcDbSymbolTable
70
1
0
BLOCK_RECORD
5
1F
100
AcDbSymbolTableRecord
100
AcDbBlockTableRecord
2
*MODEL_SPACE
0
BLOCK_RECORD
5
1B
100
AcDbSymbolTableRecord
100
AcDbBlockTableRecord
2
*PAPER_SPACE
0
ENDTAB
0
ENDSEC
0
SECTION
2
BLOCKS
0
BLOCK
5
20
100
AcDbEntity
100
AcDbBlockBegin
2
*MODEL_SPACE
0
ENDBLK
5
21
100
AcDbEntity
100
AcDbBlockEnd
0
BLOCK
5
1C
100
AcDbEntity
100
AcDbBlockBegin
2
*PAPER_SPACE
0
ENDBLK
5
1D
100
AcDbEntity
100
AcDbBlockEnd
0
ENDSEC
0
SECTION
2
ENTITIES
0
CIRCLE
5
100
100
AcDbEntity
8
0
100
AcDbCircle
10
60
20
60
30
0
40
15
210
0
220
0
230
1
0
CIRCLE
5
101
100
AcDbEntity
8
0
100
AcDbCircle
10
100
20
60
30
0
40
15
210
0
220
0
230
1
0
CIRCLE
5
102
100
AcDbEntity
8
0
100
AcDbCircle
10
140
20
60
30
0
40
15
210
0
220
0
230
1
0
LINE
5
103
100
AcDbEntity
8
0
100
AcDbLine
10
800
20
0
30
0
11
800
21
600
31
0
0
LINE
5
104
100
AcDbEntity
8
0
100
AcDbLine
10
800
20
600
30
0
11
0
21
600
31
0
0
CIRCLE
5
105
100
AcDbEntity
8
0
100
AcDbCircle
10
180
20
60
30
0
40
15
210
0
220
0
230
1
0
CIRCLE
5
106
100
AcDbEntity
8
0
100
AcDbCircle
10
60
20
90
30
0
40
10
210
0
220
0
230
1
0
CIRCLE
5
107
100
AcDbEntity
8
0
100
AcDbCircle
10
90
20
90
30
0
40
10
210
0
220
0
230
1
0
CIRCLE
5
108
100
AcDbEntity
8
0
100
AcDbCircle
10
120
20
90
30
0
40
10
210
0
220
0
230
1
0
CIRCLE
5
109
100
AcDbEntity
8
0
100
AcDbCircle
10
150
20
90
30
0
40
10
210
0
220
0
230
1
0
CIRCLE
5
110
100
AcDbEntity
8
0
100
AcDbCircle
10
60
20
120
30
0
40
10
210
0
220
0
230
1
0
CIRCLE
5
111
100
AcDbEntity
8
0
100
AcDbCircle
10
90
20
120
30
0
40
10
210
0
220
0
230
1
0
CIRCLE
5
112
100
AcDbEntity
8
0
100
AcDbCircle
10
120
20
120
30
0
40
10
210
0
220
0
230
1
0
CIRCLE
5
113
100
AcDbEntity
8
0
100
AcDbCircle
10
150
20
120
30
0
40
10
210
0
220
0
230
1
0
LWPOLYLINE
5
114
100
AcDbEntity
8
0
100
AcDbPolyline
90
4
70
1
43
0.0
10
59.125
20
58.174999999999997
10
60.875
20
58.174999999999997
42
0.99999999999999989
10
60.875
20
61.825000000000003
10
59.125
20
61.825000000000003
42
0.99999999999999989
0
LWPOLYLINE
5
115
100
AcDbEntity
8
0
100
AcDbPolyline
90
4
70
1
43
0.0
10
100.875
20
61.825000000000003
42
-0.99999999999999989
10
100.875
20
58.174999999999997
10
99.125
20
58.174999999999997
42
-0.99999999999999989
10
99.125
20
61.825000000000003
0
LWPOLYLINE
5
116
100
AcDbEntity
8
0
100
AcDbPolyline
90
4
70
1
43
0.0
10
60.875
20
91.825000000000017
42
-0.99999999999999989
10
60.875
20
88.174999999999983
10
59.125
20
88.174999999999983
42
-0.99999999999999989
10
59.125
20
91.825000000000017
0
LWPOLYLINE
5
117
100
AcDbEntity
8
0
100
AcDbPolyline
90
4
70
1
43
0.0
10
90.875
20
91.825000000000017
42
-0.99999999999999989
10
90.875
20
88.174999999999983
10
89.125000000000014
20
88.174999999999983
42
-0.99999999999999989
10
89.125000000000014
20
91.825000000000017
0
CIRCLE
5
118
100
AcDbEntity
8
0
100
AcDbCircle
10
140
20
60
30
0
40
2.5
210
0
220
0
230
1
0
CIRCLE
5
119
100
AcDbEntity
8
0
100
AcDbCircle
10
180
20
60
30
0
40
2.5
210
0
220
0
230
1
0
CIRCLE
5
120
100
AcDbEntity
8
0
100
AcDbCircle
10
120
20
90
30
0
40
2.5
210
0
220
0
230
1
0
CIRCLE
5
121
100
AcDbEntity
8
0
100
AcDbCircle
10
150
20
90
30
0
40
2.5
210
0
220
0
230
1
0
CIRCLE
5
122
100
AcDbEntity
8
0
100
AcDbCircle
10
120
20
120
30
0
40
2.5
210
0
220
0
230
1
0
CIRCLE
5
123
100
AcDbEntity
8
0
100
AcDbCircle
10
150
20
120
30
0
40
2.5
210
0
220
0
230
1
0
LWPOLYLINE
5
124
100
AcDbEntity
8
0
100
AcDbPolyline
90
4
70
1
43
0.0
10
190
20
80
10
170
20
80
10
170
20
180
10
190
20
180
0
LWPOLYLINE
5
125
100
AcDbEntity
8
0
100
AcDbPolyline
90
4
70
1
43
0.0
10
70
20
140
10
50
20
140
10
50
20
160
10
70
20
160
0
LWPOLYLINE
5
126
100
AcDbEntity
8
0
100
AcDbPolyline
90
4
70
1
43
0.0
10
100
20
160
10
80
20
160
10
80
20
140
10
100
20
140
0
LWPOLYLINE
5
127
100
AcDbEntity
8
0
100
AcDbPolyline
90
4
70
1
43
0.0
10
120
20
160
10
110
20
160
10
110
20
140
10
120
20
140
0
LWPOLYLINE
5
128
100
AcDbEntity
8
0
100
AcDbPolyline
90
4
70
1
43
0.0
10
145
20
160
10
130
20
160
10
130
20
140
10
145
20
140
0
LWPOLYLINE
5
129
100
AcDbEntity
8
0
100
AcDbPolyline
90
4
70
1
43
0.0
10
70
20
170
10
50
20
170
10
50
20
190
10
70
20
190
0
LWPOLYLINE
5
130
100
AcDbEntity
8
0
100
AcDbPolyline
90
4
70
1
43
0.0
10
80
20
170
10
100
20
170
10
100
20
190
10
80
20
190
0
CIRCLE
5
131
100
AcDbEntity
8
0
100
AcDbCircle
10
60
20
180
30
0
40
2.5
210
0
220
0
230
1
0
CIRCLE
5
132
100
AcDbEntity
8
0
100
AcDbCircle
10
90
20
180
30
0
40
2.5
210
0
220
0
230
1
0
CIRCLE
5
133
100
AcDbEntity
8
0
100
AcDbCircle
10
280
20
120
30
0
40
10
210
0
220
0
230
1
0
LWPOLYLINE
5
134
100
AcDbEntity
8
0
100
AcDbPolyline
90
4
70
1
43
0.0
10
270
20
140
10
280
20
140
10
280
20
160
10
270
20
160
0
LWPOLYLINE
5
135
100
AcDbEntity
8
0
100
AcDbPolyline
90
4
70
1
43
0.0
10
330
20
180
10
350
20
180
10
350
20
80
10
330
20
80
0
CIRCLE
5
136
100
AcDbEntity
8
0
100
AcDbCircle
10
340
20
60
30
0
40
15
210
0
220
0
230
1
0
LWPOLYLINE
5
137
100
AcDbEntity
8
0
100
AcDbPolyline
90
4
70
1
43
0.0
10
210
20
160
10
230
20
160
10
230
20
140
10
210
20
140
0
LWPOLYLINE
5
138
100
AcDbEntity
8
0
100
AcDbPolyline
90
4
70
1
43
0.0
10
240
20
160
10
240
20
140
10
260
20
140
10
260
20
160
0
CIRCLE
5
139
100
AcDbEntity
8
0
100
AcDbCircle
10
310
20
120
30
0
40
2.5
210
0
220
0
230
1
0
CIRCLE
5
140
100
AcDbEntity
8
0
100
AcDbCircle
10
280
20
90
30
0
40
2.5
210
0
220
0
230
1
0
CIRCLE
5
141
100
AcDbEntity
8
0
100
AcDbCircle
10
340
20
60
30
0
40
2.5
210
0
220
0
230
1
0
CIRCLE
5
142
100
AcDbEntity
8
0
100
AcDbCircle
10
280
20
90
30
0
40
10
210
0
220
0
230
1
0
LWPOLYLINE
5
143
100
AcDbEntity
8
0
100
AcDbPolyline
90
4
70
1
43
0.0
10
305
20
140
10
305
20
160
10
290
20
160
10
290
20
140
0
CIRCLE
5
144
100
AcDbEntity
8
0
100
AcDbCircle
10
310
20
90
30
0
40
2.5
210
0
220
0
230
1
0
CIRCLE
5
145
100
AcDbEntity
8
0
100
AcDbCircle
10
310
20
120
30
0
40
10
210
0
220
0
230
1
0
CIRCLE
5
146
100
AcDbEntity
8
0
100
AcDbCircle
10
280
20
120
30
0
40
2.5
210
0
220
0
230
1
0
CIRCLE
5
147
100
AcDbEntity
8
0
100
AcDbCircle
10
310
20
90
30
0
40
10
210
0
220
0
230
1
0
CIRCLE
5
148
100
AcDbEntity
8
0
100
AcDbCircle
10
300
20
60
30
0
40
2.5
210
0
220
0
230
1
0
CIRCLE
5
149
100
AcDbEntity
8
0
100
AcDbCircle
10
300
20
60
30
0
40
15
210
0
220
0
230
1
0
CIRCLE
5
150
100
AcDbEntity
8
0
100
AcDbCircle
10
220
20
60
30
0
40
15
210
0
220
0
230
1
0
CIRCLE
5
151
100
AcDbEntity
8
0
100
AcDbCircle
10
260
20
60
30
0
40
15
210
0
220
0
230
1
0
CIRCLE
5
152
100
AcDbEntity
8
0
100
AcDbCircle
10
220
20
90
30
0
40
10
210
0
220
0
230
1
0
CIRCLE
5
153
100
AcDbEntity
8
0
100
AcDbCircle
10
220
20
90
30
0
40
2.5
210
0
220
0
230
1
0
CIRCLE
5
154
100
AcDbEntity
8
0
100
AcDbCircle
10
220
20
120
30
0
40
10
210
0
220
0
230
1
0
CIRCLE
5
155
100
AcDbEntity
8
0
100
AcDbCircle
10
250
20
120
30
0
40
10
210
0
220
0
230
1
0
CIRCLE
5
156
100
AcDbEntity
8
0
100
AcDbCircle
10
220
20
120
30
0
40
2.5
210
0
220
0
230
1
0
CIRCLE
5
157
100
AcDbEntity
8
0
100
AcDbCircle
10
250
20
90
30
0
40
2.5
210
0
220
0
230
1
0
CIRCLE
5
158
100
AcDbEntity
8
0
100
AcDbCircle
10
250
20
90
30
0
40
10
210
0
220
0
230
1
0
CIRCLE
5
159
100
AcDbEntity
8
0
100
AcDbCircle
10
250
20
120
30
0
40
2.5
210
0
220
0
230
1
0
CIRCLE
5
160
100
AcDbEntity
8
0
100
AcDbCircle
10
220
20
60
30
0
40
2.5
210
0
220
0
230
1
0
CIRCLE
5
161
100
AcDbEntity
8
0
100
AcDbCircle
10
260
20
60
30
0
40
2.5
210
0
220
0
230
1
0
LWPOLYLINE
5
162
100
AcDbEntity
8
0
100
AcDbPolyline
90
4
70
1
43
0.0
10
270
20
170
10
280
20
170
10
280
20
190
10
270
20
190
0
LWPOLYLINE
5
163
100
AcDbEntity
8
0
100
AcDbPolyline
90
4
70
1
43
0.0
10
290
20
170
10
305
20
170
10
305
20
190
10
290
20
190
0
LWPOLYLINE
5
164
100
AcDbEntity
8
0
100
AcDbPolyline
90
4
70
1
43
0.0
10
240
20
170
10
260
20
170
10
260
20
190
10
240
20
190
0
LWPOLYLINE
5
165
100
AcDbEntity
8
0
100
AcDbPolyline
90
4
70
1
43
0.0
10
230
20
190
10
230
20
170
10
210
20
170
10
210
20
190
0
LWPOLYLINE
5
166
100
AcDbEntity
8
0
100
AcDbPolyline
90
4
70
1
43
0.0
10
130
20
170
10
110
20
170
10
110
20
190
10
130
20
190
0
LWPOLYLINE
5
167
100
AcDbEntity
8
0
100
AcDbPolyline
90
4
70
1
43
0.0
10
140
20
190
10
140
20
170
10
160
20
170
10
160
20
190
0
CIRCLE
5
168
100
AcDbEntity
8
0
100
AcDbCircle
10
120
20
180
30
0
40
2.5
210
0
220
0
230
1
0
CIRCLE
5
169
100
AcDbEntity
8
0
100
AcDbCircle
10
150
20
180
30
0
40
2.5
210
0
220
0
230
1
0
LWPOLYLINE
5
170
100
AcDbEntity
8
0
100
AcDbPolyline
90
28
70
1
43
0.0
10
90
20
200
10
60
20
200
10
49.999999999999993
20
210
10
70
20
230
10
72.121320343559631
20
227.87867965644037
10
92.121320343559631
20
247.87867965644037
10
90
20
250
10
110
20
270.00000000000006
10
114.24264068711935
20
270.00000000000006
10
220
20
270
10
220
20
267
10
340
20
267
10
340
20
270
10
445.75735931288068
20
270.00000000000006
10
450
20
270.00000000000006
10
470
20
250
10
467.8786796564404
20
247.87867965644037
10
487.8786796564404
20
227.87867965644037
10
490
20
230
10
510
20
210
10
500
20
200
10
470
20
200
10
455
20
215
10
355
20
215
10
340
20
200
10
220
20
200
10
205
20
215
10
105
20
215
0
LWPOLYLINE
5
171
100
AcDbEntity
8
0
100
AcDbPolyline
90
28
70
1
43
0.0
10
220
20
290
10
220
20
293
10
340
20
293
10
340
20
290
10
445.75735931288068
20
289.99999999999994
10
450
20
289.99999999999994
10
470
20
310
10
467.8786796564404
20
312.12132034355966
10
487.8786796564404
20
332.1213203435596
10
490
20
330
10
510
20
350
10
500
20
360
10
470
20
360
10
455
20
345
10
355
20
345
10
340
20
360
10
220
20
360
10
205
20
345
10
105
20
345
10
90
20
360
10
60
20
360
10
49.999999999999993
20
350
10
70
20
330
10
72.121320343559631
20
332.1213203435596
10
92.121320343559631
20
312.12132034355966
10
90
20
310
10
110
20
289.99999999999994
10
114.24264068711935
20
289.99999999999994
0
LWPOLYLINE
5
172
100
AcDbEntity
8
0
100
AcDbPolyline
90
12
70
1
43
0.0
10
426.56854299999998
20
162.99999999999997
10
398.28427099999999
20
162.99999999999997
10
398.28427099999999
20
160
10
370
20
160
10
370
20
115.99999999999994
10
398.28427099999999
20
115.99999999999994
10
398.28427099999999
20
112.99999999999997
10
426.56854299999998
20
112.99999999999997
10
426.56854299999998
20
115.99999999999994
10
454.85281399999997
20
115.99999999999994
10
454.85281399999997
20
160
10
426.56854299999998
20
160
0
LWPOLYLINE
5
173
100
AcDbEntity
8
0
100
AcDbPolyline
90
12
70
1
43
0.0
10
554.85281400000008
20
115.99999999999994
10
526.56854300000009
20
115.99999999999994
10
526.56854300000009
20
112.99999999999997
10
498.28427099999999
20
112.99999999999997
10
498.28427099999999
20
115.99999999999994
10
470
20
115.99999999999994
10
470
20
160
10
498.28427099999999
20
160
10
498.28427099999999
20
162.99999999999997
10
526.56854299999998
20
162.99999999999997
10
526.56854299999998
20
160
10
554.85281400000008
20
160
0
LWPOLYLINE
5
174
100
AcDbEntity
8
0
100
AcDbPolyline
90
12
70
1
43
0.0
10
370
20
90
10
370
20
48.999999999999915
10
475.75735931288068
20
48.999999999999915
10
475.75735931288068
20
45.999999999999943
10
595.75735931288068
20
45.999999999999943
10
595.75735931288068
20
48.999999999999915
10
701.51471862576136
20
48.999999999999915
10
701.51471862576136
20
90
10
595.75735931288068
20
90
10
595.75735931288068
20
95.999999999999943
10
475.75735931288068
20
95.999999999999943
10
475.75735931288068
20
90
0
LINE
5
175
100
AcDbEntity
8
0
100
AcDbLine
10
490
20
417
30
0
11
490
21
373
31
0
0
LINE
5
176
100
AcDbEntity
8
0
100
AcDbLine
10
70
20
417
30
0
11
70
21
373
31
0
0
LINE
5
177
100
AcDbEntity
8
0
100
AcDbLine
10
205
20
420
30
0
11
105
21
420
31
0
0
LINE
5
178
100
AcDbEntity
8
0
100
AcDbLine
10
105
20
370
30
0
11
205
21
370
31
0
0
LINE
5
179
100
AcDbEntity
8
0
100
AcDbLine
10
355
20
370
30
0
11
455
21
370
31
0
0
LINE
5
180
100
AcDbEntity
8
0
100
AcDbLine
10
455
20
420
30
0
11
355
21
420
31
0
0
LINE
5
181
100
AcDbEntity
8
0
100
AcDbLine
10
205
20
417
30
0
11
205
21
420
31
0
0
LINE
5
182
100
AcDbEntity
8
0
100
AcDbLine
10
455
20
417
30
0
11
490
21
417
31
0
0
LINE
5
183
100
AcDbEntity
8
0
100
AcDbLine
10
455
20
373
30
0
11
490
21
373
31
0
0
LINE
5
184
100
AcDbEntity
8
0
100
AcDbLine
10
105
20
420
30
0
11
105
21
417
31
0
0
LINE
5
185
100
AcDbEntity
8
0
100
AcDbLine
10
105
20
417
30
0
11
70
21
417
31
0
0
LINE
5
186
100
AcDbEntity
8
0
100
AcDbLine
10
105
20
373
30
0
11
70
21
373
31
0
0
LINE
5
187
100
AcDbEntity
8
0
100
AcDbLine
10
105
20
370
30
0
11
105
21
373
31
0
0
LINE
5
188
100
AcDbEntity
8
0
100
AcDbLine
10
205
20
370
30
0
11
205
21
373
31
0
0
CIRCLE
5
189
100
AcDbEntity
8
0
100
AcDbCircle
10
155
20
395
30
0
40
3.0000000000000071
210
0
220
0
230
1
0
CIRCLE
5
190
100
AcDbEntity
8
0
100
AcDbCircle
10
405
20
395
30
0
40
3.0000000000000071
210
0
220
0
230
1
0
LINE
5
191
100
AcDbEntity
8
0
100
AcDbLine
10
355
20
420
30
0
11
355
21
417
31
0
0
LINE
5
192
100
AcDbEntity
8
0
100
AcDbLine
10
205
20
417
30
0
11
355
21
417
31
0
0
LINE
5
193
100
AcDbEntity
8
0
100
AcDbLine
10
205
20
373
30
0
11
355
21
373
31
0
0
LINE
5
194
100
AcDbEntity
8
0
100
AcDbLine
10
455
20
420
30
0
11
455
21
417
31
0
0
LINE
5
195
100
AcDbEntity
8
0
100
AcDbLine
10
455
20
373
30
0
11
455
21
370
31
0
0
LINE
5
196
100
AcDbEntity
8
0
100
AcDbLine
10
355
20
373
30
0
11
355
21
370
31
0
0
ENDSEC
0
SECTION
2
OBJECTS
0
DICTIONARY
5
C
100
AcDbDictionary
3
ACAD_GROUP
350
D
3
ACAD_MLINESTYLE
350
17
0
DICTIONARY
5
D
100
AcDbDictionary
0
DICTIONARY
5
1A
330
C
100
AcDbDictionary
0
DICTIONARY
5
17
100
AcDbDictionary
0
ENDSEC
0
EOF
